HIERARCHY
ROOT Hips
{
	OFFSET 0.000000 0.000000 0.000000
	CHANNELS 6 Xposition Yposition Zposition Zrotation Yrotation Xrotation
	JOINT LHipJoint
	{
		OFFSET 0.000000 0.000000 0.000000
		CHANNELS 3 Zrotation Yrotation Xrotation
		JOINT LeftUpLeg
		{
			OFFSET 1.363060 -1.794630 0.839290
			CHANNELS 3 Zrotation Yrotation Xrotation
			JOINT LeftLeg
			{
				OFFSET 2.448110 -6.726130 0.000000
				CHANNELS 3 Zrotation Yrotation Xrotation
				JOINT LeftFoot
				{
					OFFSET 2.562200 -7.039590 0.000000
					CHANNELS 3 Zrotation Yrotation Xrotation
					JOINT LeftToeBase
					{
						OFFSET 0.157640 -0.433110 2.322550
						CHANNELS 3 Zrotation Yrotation Xrotation
						End Site
						{
							OFFSET 0.000000 0.000000 0.000000
						}
					}
				}
			}
		}
	}
	JOINT RHipJoint
	{
		OFFSET 0.000000 0.000000 0.000000
		CHANNELS 3 Zrotation Yrotation Xrotation
		JOINT RightUpLeg
		{
			OFFSET -1.305520 -1.794630 0.839290
			CHANNELS 3 Zrotation Yrotation Xrotation
			JOINT RightLeg
			{
				OFFSET -2.542530 -6.985550 0.000000
				CHANNELS 3 Zrotation Yrotation Xrotation
				JOINT RightFoot
				{
					OFFSET -2.568260 -7.056230 0.000000
					CHANNELS 3 Zrotation Yrotation Xrotation
					JOINT RightToeBase
					{
						OFFSET -0.164730 -0.452590 2.363150
						CHANNELS 3 Zrotation Yrotation Xrotation
						End Site
						{
							OFFSET 0.000000 0.000000 0.000000
						}
					}
				}
			}
		}
	}
	JOINT LowerBack
	{
		OFFSET 0.000000 0.000000 0.000000
		CHANNELS 3 Zrotation Yrotation Xrotation
		JOINT Spine
		{
			OFFSET 0.028270 2.035590 -0.193380
			CHANNELS 3 Zrotation Yrotation Xrotation
			JOINT Spine1
			{
				OFFSET 0.056720 2.048850 -0.042750
				CHANNELS 3 Zrotation Yrotation Xrotation
				JOINT Neck
				{
					OFFSET 0.000000 0.000000 0.000000
					CHANNELS 3 Zrotation Yrotation Xrotation
					JOINT Neck1
					{
						OFFSET -0.054170 1.746240 0.172020
						CHANNELS 3 Zrotation Yrotation Xrotation
						JOINT Head
						{
							OFFSET 0.104070 1.761360 -0.123970
							CHANNELS 3 Zrotation Yrotation Xrotation
							End Site
							{
								OFFSET 0.000000 0.000000 0.000000
							}
						}
					}
				}
				JOINT LeftShoulder
				{
					OFFSET 0.000000 0.000000 0.000000
					CHANNELS 3 Zrotation Yrotation Xrotation
					JOINT LeftArm
					{
						OFFSET 3.362410 1.200890 -0.311210
						CHANNELS 3 Zrotation Yrotation Xrotation
						JOINT LeftForeArm
						{
							OFFSET 4.983000 -0.000000 -0.000000
							CHANNELS 3 Zrotation Yrotation Xrotation
							JOINT LeftHand
							{
								OFFSET 3.483560 -0.000000 -0.000000
								CHANNELS 3 Zrotation Yrotation Xrotation
								JOINT LeftFingerBase
								{
									OFFSET 0.000000 0.000000 0.000000
									CHANNELS 3 Zrotation Yrotation Xrotation
									JOINT LeftHandIndex1
									{
										OFFSET 0.715260 -0.000000 -0.000000
										CHANNELS 3 Zrotation Yrotation Xrotation
										End Site
										{
											OFFSET 0.000000 0.000000 0.000000
										}
									}
								}
								JOINT LThumb
								{
									OFFSET 0.000000 0.000000 0.000000
									CHANNELS 3 Zrotation Yrotation Xrotation
									End Site
									{
										OFFSET 0.000000 0.000000 0.000000
									}
								}
							}
						}
					}
				}
				JOINT RightShoulder
				{
					OFFSET 0.000000 0.000000 0.000000
					CHANNELS 3 Zrotation Yrotation Xrotation
					JOINT RightArm
					{
						OFFSET -3.136600 1.374050 -0.404650
						CHANNELS 3 Zrotation Yrotation Xrotation
						JOINT RightForeArm
						{
							OFFSET -5.241900 -0.000000 -0.000000
							CHANNELS 3 Zrotation Yrotation Xrotation
							JOINT RightHand
							{
								OFFSET -3.444170 -0.000000 -0.000000
								CHANNELS 3 Zrotation Yrotation Xrotation
								JOINT RightFingerBase
								{
									OFFSET 0.000000 0.000000 0.000000
									CHANNELS 3 Zrotation Yrotation Xrotation
									JOINT RightHandIndex1
									{
										OFFSET -0.622530 -0.000000 -0.000000
										CHANNELS 3 Zrotation Yrotation Xrotation
										End Site
										{
											OFFSET 0.000000 0.000000 0.000000
										}
									}
								}
								JOINT RThumb
								{
									OFFSET 0.000000 0.000000 0.000000
									CHANNELS 3 Zrotation Yrotation Xrotation
									End Site
									{
										OFFSET 0.000000 0.000000 0.000000
									}
								}
							}
						}
					}
				}
			}
		}
	}
}
MOTION
Frames: 11
Frame Time: 0.008333
2.457181 2.666741 8.937914 3.030653 9.953291 1.235296 -1.033325 2.780620 4.866908 -20.151680 1.832793 13.996649 4.532589 -2.016652 -0.634153 2.309037 -8.855859 -6.380712 0.320597 10.602675 -0.060493 -3.812667 1.148878 -4.153848 -14.216561 13.516901 -32.635136 -4.862745 -8.608108 16.371590 -0.659574 -15.229697 10.665152 -4.606521 -4.670584 20.208263 -5.056285 -1.460787 -1.752789 1.907593 -5.569243 -5.917903 5.232177 -1.145080 -2.439572 1.216137 4.116848 -4.568197 0.368046 7.391199 -0.726229 -3.351833 -2.015621 0.602834 -1.503395 -1.018222 -0.386189 17.123062 -18.350319 0.496452 -1.558131 1.374143 0.134810 0.025612 -0.170511 3.395829 5.902061 -8.626431 -2.066883 1.450720 0.000000 0.000000 29.892799 -23.744694 -10.423729 1.480917 0.469432 -0.476651 -0.334689 -12.862263 -25.183064 -6.594834 -7.304298 14.852515 0.385435 0.002976 11.969690 -28.071318 -11.479211 4.407354 1.671154 0.000000 0.000000 12.465019 -35.361965 16.644722
2.497284 2.569535 8.972408 3.125496 10.114064 1.280760 -1.051809 2.831716 4.849427 -20.140511 1.803692 14.404738 4.462232 -2.005845 -0.654787 2.322884 -8.799364 -5.982072 0.397301 10.290089 -0.517098 -3.846546 1.129225 -4.155890 -13.947878 13.530688 -32.496433 -4.875948 -8.522706 16.081234 -0.752603 -14.951870 10.761488 -4.694181 -4.696226 20.360395 -4.992221 -1.428584 -1.747136 1.899615 -5.556375 -5.927131 5.217689 -1.137244 -2.381411 1.178627 4.125642 -4.638884 0.357405 7.358384 -0.732490 -3.355036 -2.023595 0.629682 -1.492313 -1.028233 -0.388382 17.099588 -18.380056 0.593159 -1.495490 1.197270 0.101800 0.016680 -0.177498 3.406614 5.864352 -8.675017 -2.090908 1.450486 0.000000 0.000000 29.800205 -23.418377 -10.767358 1.507314 0.469577 -0.471922 -0.105003 -12.992971 -25.282135 -6.772812 -7.295482 14.889195 0.386311 0.001646 11.983027 -28.287642 -11.492645 4.088306 1.682002 0.000000 0.000000 12.505835 -35.555901 16.542019
2.532457 2.463532 8.959361 3.212828 10.254353 1.297439 -1.089315 2.870230 4.817005 -20.168644 1.748618 14.753805 4.379220 -2.013651 -0.726064 2.329102 -8.767191 -5.581946 0.471923 9.972124 -0.968381 -3.884046 1.106415 -4.154645 -13.680032 13.539688 -32.361362 -4.893569 -8.438321 15.793152 -0.848656 -14.675270 10.854232 -4.780347 -4.715596 20.535553 -4.922308 -1.394925 -1.734340 1.893931 -5.540781 -5.935567 5.204504 -1.127962 -2.319034 1.145998 4.137605 -4.703647 0.349406 7.328905 -0.734017 -3.354501 -2.029797 0.660985 -1.475946 -1.035922 -0.389676 17.099070 -18.403553 0.706488 -1.427274 1.029468 0.070453 0.008427 -0.182918 3.426405 5.833355 -8.718409 -2.117716 1.449131 0.000000 0.000000 29.659597 -23.124479 -11.161726 1.526194 0.465976 -0.467440 0.114867 -13.130182 -25.382381 -6.955820 -7.292861 14.923510 0.387011 0.000164 11.995652 -28.486359 -11.501188 3.773109 1.693294 0.000000 0.000000 12.537098 -35.746197 16.471914
2.565802 2.358042 8.947021 3.302980 10.398504 1.321050 -1.117244 2.911953 4.786347 -20.193695 1.696642 15.093388 4.293122 -2.025228 -0.811317 2.332007 -8.743237 -5.188794 0.543984 9.648581 -1.437083 -3.936813 1.076293 -4.163620 -13.445012 13.532235 -32.249294 -4.915815 -8.358553 15.485831 -0.950627 -14.413965 10.926032 -4.867329 -4.735205 20.706903 -4.853825 -1.361457 -1.721298 1.888124 -5.525516 -5.944998 5.191326 -1.118886 -2.257776 1.112339 4.148625 -4.769886 0.341066 7.297978 -0.737662 -3.355224 -2.036709 0.690884 -1.460883 -1.044978 -0.391244 17.097027 -18.428965 0.815386 -1.359120 0.861637 0.038740 0.000090 -0.188460 3.454933 5.811811 -8.745991 -2.135182 1.450361 0.000000 0.000000 29.591589 -22.732862 -11.472907 1.558276 0.472413 -0.459220 0.386210 -13.245309 -25.447495 -7.099295 -7.255978 14.983241 0.391097 0.002127 12.039045 -28.469513 -11.412948 3.622671 1.709036 0.000000 0.000000 12.788990 -35.808506 16.620693
2.605780 2.251024 8.916073 3.400926 10.556404 1.345263 -1.130627 2.961920 4.765126 -20.182169 1.687939 15.467302 4.230866 -1.960076 -0.694037 2.346051 -8.668789 -4.685113 0.630049 9.337020 -1.891118 -3.969547 1.050023 -4.163053 -13.174472 13.538307 -32.111866 -4.933871 -8.282652 15.189609 -1.058069 -14.148009 10.976124 -4.954671 -4.758086 20.867975 -4.795162 -1.333430 -1.720291 1.879726 -5.513577 -5.965779 5.172688 -1.112998 -2.204069 1.067006 4.150855 -4.849839 0.327191 7.258350 -0.752489 -3.360927 -2.047128 0.714748 -1.451637 -1.061545 -0.393952 17.071491 -18.469074 0.883126 -1.310076 0.672364 0.000885 -0.010389 -0.198568 3.414863 5.759154 -8.824399 -2.175797 1.446211 0.000000 0.000000 29.386791 -22.467659 -11.922184 1.559312 0.462744 -0.457213 0.551687 -13.395596 -25.577751 -7.304016 -7.285457 15.001821 0.389411 -0.002586 12.024616 -28.850071 -11.499859 3.152411 1.716129 0.000000 0.000000 12.568528 -36.126968 16.393377
2.660060 2.158919 8.932594 3.525891 10.763113 1.398201 -1.111297 3.022406 4.750844 -20.151188 1.702043 15.853045 4.188659 -1.864705 -0.487826 2.368240 -8.527080 -4.096391 0.727735 9.030293 -2.374810 -3.964969 1.034178 -4.134000 -12.821309 13.594801 -31.886665 -4.947561 -8.241208 14.920051 -1.164030 -13.876597 10.990849 -5.046464 -4.793549 20.993597 -4.757471 -1.314305 -1.743947 1.865600 -5.505784 -6.000552 5.146428 -1.110846 -2.155545 1.007832 4.142631 -4.950127 0.302577 7.203720 -0.788111 -3.377519 -2.064265 0.726969 -1.454187 -1.088685 -0.398220 17.002815 -18.529564 0.899891 -1.286299 0.459317 -0.043955 -0.022640 -0.212013 3.324886 5.687944 -8.936456 -2.233359 1.439414 0.000000 0.000000 29.113565 -22.249701 -12.425853 1.540980 0.441724 -0.457741 0.668943 -13.549890 -25.731922 -7.532310 -7.342672 15.012060 0.386287 -0.009723 11.989644 -29.339750 -11.633502 2.583625 1.720485 0.000000 0.000000 12.244474 -36.500370 16.122450
2.706481 2.042546 8.839004 3.631848 10.931812 1.386244 -1.136574 3.058618 4.710614 -20.193464 1.669544 16.089926 4.122004 -1.822745 -0.430937 2.366032 -8.461991 -3.582084 0.805653 8.673723 -2.999326 -4.010656 0.996488 -4.137518 -12.584484 13.583608 -31.785984 -4.979749 -8.236568 14.658165 -1.272982 -13.593542 10.995545 -5.134602 -4.816192 21.206688 -4.700974 -1.287261 -1.735360 1.860717 -5.485570 -6.019272 5.131495 -1.103626 -2.085268 0.966420 4.146861 -5.025301 0.288446 7.165352 -0.800893 -3.381244 -2.074106 0.753391 -1.440890 -1.110134 -0.400702 16.990343 -18.576014 0.985324 -1.246543 0.279895 -0.080377 -0.031440 -0.217903 3.297373 5.656145 -9.002038 -2.273922 1.435970 0.000000 0.000000 28.886787 -21.937845 -12.866680 1.527869 0.428089 -0.453883 0.839765 -13.675820 -25.853397 -7.717704 -7.370919 15.052105 0.386740 -0.013901 11.985680 -29.591774 -11.660254 2.189749 1.729553 0.000000 0.000000 12.103859 -36.752701 16.132294
2.748932 1.923172 8.725914 3.733913 11.091060 1.366118 -1.162608 3.092913 4.666178 -20.247568 1.630354 16.297810 4.048799 -1.791024 -0.397014 2.358971 -8.410965 -3.078127 0.878377 8.313647 -3.634556 -4.065860 0.951579 -4.150626 -12.369880 13.564301 -31.701557 -5.013721 -8.227399 14.403040 -1.383398 -13.312786 10.996538 -5.223322 -4.838717 21.428932 -4.644089 -1.258675 -1.717265 1.858517 -5.461209 -6.030421 5.122260 -1.094258 -2.007979 0.930385 4.154440 -5.094006 0.277018 7.129812 -0.810125 -3.382407 -2.082299 0.782959 -1.422804 -1.127026 -0.401713 17.021362 -18.611696 1.099929 -1.198006 0.112325 -0.114231 -0.039306 -0.221521 3.302416 5.650293 -9.026809 -2.295129 1.437155 0.000000 0.000000 28.772419 -21.477325 -13.178789 1.534067 0.428978 -0.444568 1.082261 -13.768981 -25.919628 -7.839343 -7.343907 15.133259 0.392408 -0.012514 12.033126 -29.487379 -11.527059 2.072012 1.745983 0.000000 0.000000 12.303596 -36.806458 16.493214
2.804678 1.820700 8.680197 3.858160 11.282866 1.385948 -1.141800 3.150360 4.642452 -20.238455 1.652891 16.610365 4.001114 -1.682720 -0.164022 2.360109 -8.309333 -2.471325 0.960040 7.981823 -4.186915 -4.098517 0.912788 -4.148796 -12.110116 13.568638 -31.575388 -5.044013 -8.216902 14.195838 -1.493312 -13.054477 10.954137 -5.315918 -4.879001 21.615784 -4.599329 -1.238053 -1.720353 1.850085 -5.446020 -6.059396 5.103958 -1.089346 -1.950778 0.875261 4.149448 -5.180364 0.257549 7.081890 -0.834288 -3.390651 -2.094396 0.804829 -1.411097 -1.153365 -0.404468 17.028631 -18.666754 1.171568 -1.163302 -0.072297 -0.152686 -0.048559 -0.229328 3.240570 5.614789 -9.103504 -2.340656 1.434014 0.000000 0.000000 28.556927 -21.115671 -13.607066 1.513412 0.415786 -0.440002 1.236202 -13.888029 -26.047285 -8.015754 -7.384736 15.171508 0.393519 -0.017166 12.031303 -29.720322 -11.553215 1.697059 1.755164 0.000000 0.000000 12.128131 -37.056423 16.565632
2.858302 1.714392 8.623247 3.980680 11.442177 1.375858 -1.140791 3.193250 4.602022 -20.261526 1.660295 16.861340 3.957578 -1.566989 0.102755 2.352683 -8.187009 -1.853123 1.037849 7.631200 -4.761421 -4.143775 0.866658 -4.147435 -11.862276 13.573137 -31.445112 -5.080977 -8.251698 13.989479 -1.608387 -12.838005 10.866209 -5.415486 -4.944441 21.786137 -4.559692 -1.223409 -1.738876 1.838901 -5.433380 -6.096353 5.081851 -1.087188 -1.899575 0.809086 4.136674 -5.278460 0.230853 7.023567 -0.871258 -3.406509 -2.112936 0.815779 -1.409226 -1.191675 -0.409324 16.982380 -18.749285 1.181244 -1.151156 -0.285414 -0.198288 -0.059338 -0.241122 3.125855 5.556170 -9.216894 -2.398578 1.428381 0.000000 0.000000 28.282299 -20.807539 -14.097667 1.473727 0.390565 -0.438122 1.339013 -14.012964 -26.209061 -8.217798 -7.458896 15.192277 0.392129 -0.025666 11.997511 -30.152691 -11.689313 1.140128 1.759279 0.000000 0.000000 11.649836 -37.472683 16.351326
2.909856 1.601975 8.531629 4.105126 11.603119 1.349494 -1.147172 3.227355 4.550424 -20.307190 1.653399 17.020393 3.907922 -1.456287 0.344931 2.328891 -8.088846 -1.231483 1.108405 7.273152 -5.346510 -4.189972 0.820661 -4.133532 -11.591706 13.568266 -31.345177 -5.122332 -8.303635 13.844899 -1.717154 -12.599654 10.833284 -5.502547 -4.980995 22.058382 -4.502064 -1.203177 -1.729591 1.838286 -5.407780 -6.115997 5.072430 -1.078379 -1.819614 0.764838 4.140126 -5.345263 0.216338 6.982671 -0.881704 -3.404986 -2.122608 0.845427 -1.383902 -1.216151 -0.410322 17.056940 -18.793255 1.306970 -1.110712 -0.459074 -0.234642 -0.066539 -0.245717 3.087089 5.541869 -9.279799 -2.434158 1.427494 0.000000 0.000000 28.102367 -20.352278 -14.479465 1.445528 0.377033 -0.429975 1.522307 -14.094934 -26.318275 -8.340104 -7.471416 15.259356 0.396590 -0.028235 12.025395 -30.102854 -11.618999 0.940301 1.772856 0.000000 0.000000 11.632230 -37.606277 16.686434
